<svg width="24" height="24" viewBox="0 0 24 24" fill="none" xmlns="http://www.w3.org/2000/svg">
<circle cx="12" cy="12" r="12" fill="#DAC5A7"/>
<path d="M3.512 16C3.16533 16 2.888 15.9147 2.68 15.744C2.472 15.5733 2.368 15.3413 2.368 15.048C2.368 14.8933 2.392 14.7147 2.44 14.512C2.488 14.3093 2.56 14.0507 2.656 13.736C2.752 13.4107 2.824 13.152 2.872 12.96C2.92 12.768 2.944 12.5973 2.944 12.448C2.944 12.3413 2.92 12.2667 2.872 12.224C2.824 12.1813 2.73867 12.16 2.616 12.16H2.36L2.448 11.752H2.696C2.88267 11.752 3.01867 11.68 3.104 11.536C3.18933 11.3867 3.23733 11.136 3.248 10.784C3.28 10.0533 3.34667 9.49067 3.448 9.096C3.55467 8.696 3.71733 8.41067 3.936 8.24C4.15467 8.06933 4.46133 7.984 4.856 7.984H5.2L5.136 8.384C4.864 8.384 4.66667 8.44 4.544 8.552C4.42667 8.65867 4.336 8.88 4.272 9.216C4.21333 9.552 4.14933 10.1307 4.08 10.952C4.05867 11.224 3.992 11.4293 3.88 11.568C3.768 11.7013 3.57067 11.8293 3.288 11.952C3.45333 12.0267 3.568 12.112 3.632 12.208C3.696 12.2987 3.728 12.4213 3.728 12.576C3.728 12.6933 3.712 12.8267 3.68 12.976C3.65333 13.1253 3.60533 13.3333 3.536 13.6C3.46133 13.8773 3.40533 14.1147 3.368 14.312C3.33067 14.5093 3.312 14.6907 3.312 14.856C3.312 15.0853 3.35467 15.2667 3.44 15.4C3.53067 15.5387 3.65867 15.6187 3.824 15.64L3.744 16H3.512ZM18.4192 15.6C18.6859 15.6 18.8779 15.544 18.9952 15.432C19.1179 15.3253 19.2112 15.1013 19.2752 14.76C19.3392 14.424 19.4032 13.848 19.4672 13.032C19.4885 12.76 19.5552 12.5573 19.6672 12.424C19.7792 12.2853 19.9792 12.1547 20.2672 12.032C20.1019 11.9573 19.9845 11.8747 19.9152 11.784C19.8512 11.688 19.8192 11.5627 19.8192 11.408C19.8192 11.2853 19.8325 11.152 19.8592 11.008C19.8912 10.8587 19.9419 10.6507 20.0112 10.384C20.0912 10.08 20.1499 9.83733 20.1872 9.656C20.2245 9.46933 20.2432 9.29333 20.2432 9.128C20.2432 8.89867 20.1979 8.71733 20.1072 8.584C20.0165 8.44533 19.8885 8.36533 19.7232 8.344L19.8032 7.984H20.0352C20.3872 7.984 20.6645 8.06933 20.8672 8.24C21.0752 8.41067 21.1792 8.64267 21.1792 8.936C21.1792 9.09067 21.1552 9.26933 21.1072 9.472C21.0592 9.67467 20.9872 9.93333 20.8912 10.248C20.7899 10.6053 20.7179 10.872 20.6752 11.048C20.6325 11.224 20.6112 11.3867 20.6112 11.536C20.6112 11.6427 20.6352 11.7173 20.6832 11.76C20.7312 11.8027 20.8165 11.824 20.9392 11.824H21.1872L21.1072 12.232H20.8512C20.6645 12.232 20.5285 12.3067 20.4432 12.456C20.3579 12.6 20.3099 12.848 20.2992 13.2C20.2672 13.936 20.1979 14.5013 20.0912 14.896C19.9899 15.2907 19.8299 15.5733 19.6112 15.744C19.3925 15.9147 19.0859 16 18.6912 16H18.3472L18.4192 15.6Z" fill="#FFE70B"/>
<path d="M5.6925 14.032C5.5165 14.032 5.36717 13.9707 5.2445 13.848C5.12183 13.7253 5.0605 13.576 5.0605 13.4C5.0605 13.224 5.12183 13.0747 5.2445 12.952C5.36717 12.824 5.5165 12.76 5.6925 12.76C5.8685 12.76 6.01783 12.824 6.1405 12.952C6.2685 13.0747 6.3325 13.224 6.3325 13.4C6.3325 13.576 6.2685 13.7253 6.1405 13.848C6.01783 13.9707 5.8685 14.032 5.6925 14.032ZM8.25006 9.568C8.07406 9.568 7.92473 9.50667 7.80206 9.384C7.6794 9.26133 7.61806 9.112 7.61806 8.936C7.61806 8.76 7.6794 8.61067 7.80206 8.488C7.92473 8.36 8.07406 8.296 8.25006 8.296C8.42606 8.296 8.5754 8.36 8.69806 8.488C8.82606 8.61067 8.89006 8.76 8.89006 8.936C8.89006 9.112 8.82606 9.26133 8.69806 9.384C8.5754 9.50667 8.42606 9.568 8.25006 9.568ZM7.70606 14.048C7.45006 14.048 7.24206 13.968 7.08206 13.808C6.9274 13.648 6.85006 13.408 6.85006 13.088C6.85006 12.9547 6.8714 12.7813 6.91406 12.568L7.45806 10H8.61006L8.03406 12.72C8.01273 12.8 8.00206 12.8853 8.00206 12.976C8.00206 13.0827 8.02606 13.16 8.07406 13.208C8.1274 13.2507 8.21273 13.272 8.33006 13.272C8.48473 13.272 8.62873 13.208 8.76206 13.08C8.8954 12.9467 8.9914 12.776 9.05006 12.568H9.38606C9.18873 13.144 8.9354 13.536 8.62606 13.744C8.31673 13.9467 8.01006 14.048 7.70606 14.048ZM10.0069 14.048C9.70288 14.048 9.44954 13.944 9.24688 13.736C9.04421 13.528 8.94287 13.2027 8.94287 12.76C8.94287 12.3653 9.02021 11.952 9.17488 11.52C9.33488 11.0827 9.56954 10.7147 9.87888 10.416C10.1935 10.112 10.5669 9.96 10.9989 9.96C11.2175 9.96 11.3802 9.99733 11.4869 10.072C11.5935 10.1467 11.6469 10.2453 11.6469 10.368V10.424L11.7349 10H12.8869L12.3109 12.72C12.2895 12.8 12.2789 12.8853 12.2789 12.976C12.2789 13.2053 12.3882 13.32 12.6069 13.32C12.7562 13.32 12.8842 13.2507 12.9909 13.112C13.1029 12.9733 13.1909 12.792 13.2549 12.568H13.5909C13.3935 13.144 13.1482 13.536 12.8549 13.744C12.5669 13.9467 12.2762 14.048 11.9829 14.048C11.7589 14.048 11.5775 13.9867 11.4389 13.864C11.3055 13.736 11.2255 13.552 11.1989 13.312C11.0442 13.5307 10.8709 13.7093 10.6789 13.848C10.4922 13.9813 10.2682 14.048 10.0069 14.048ZM10.5269 13.272C10.6602 13.272 10.7909 13.2107 10.9189 13.088C11.0522 12.96 11.1429 12.7867 11.1909 12.568L11.5749 10.76C11.5749 10.6907 11.5482 10.624 11.4949 10.56C11.4415 10.4907 11.3589 10.456 11.2469 10.456C11.0335 10.456 10.8415 10.5813 10.6709 10.832C10.5002 11.0773 10.3669 11.376 10.2709 11.728C10.1749 12.0747 10.1269 12.3813 10.1269 12.648C10.1269 12.9147 10.1642 13.0853 10.2389 13.16C10.3189 13.2347 10.4149 13.272 10.5269 13.272ZM17.9858 14.048C17.7031 14.048 17.4978 13.9627 17.3698 13.792C17.2418 13.6213 17.1778 13.4053 17.1778 13.144C17.1778 13.032 17.1911 12.9067 17.2178 12.768C17.2445 12.624 17.2711 12.4853 17.2978 12.352C17.3298 12.2187 17.3511 12.1333 17.3618 12.096C17.4045 11.9093 17.4445 11.7253 17.4818 11.544C17.5191 11.3627 17.5378 11.216 17.5378 11.104C17.5378 10.832 17.4418 10.696 17.2498 10.696C17.1111 10.696 16.9885 10.7653 16.8818 10.904C16.7751 11.0373 16.6898 11.2133 16.6258 11.432L16.0818 14H14.9298L15.5138 11.24C15.5298 11.176 15.5378 11.1093 15.5378 11.04C15.5378 10.8053 15.4578 10.688 15.2978 10.688C15.1485 10.688 15.0178 10.7573 14.9058 10.896C14.7991 11.0293 14.7138 11.208 14.6498 11.432L14.1058 14H12.9538L13.8018 10H14.9538L14.8658 10.416C15.1378 10.112 15.4631 9.96 15.8418 9.96C16.3111 9.96 16.5858 10.1893 16.6658 10.648C16.9591 10.1947 17.3298 9.968 17.7778 9.968C18.0498 9.968 18.2658 10.0427 18.4258 10.192C18.5858 10.3413 18.6658 10.568 18.6658 10.872C18.6658 11.0267 18.6471 11.2 18.6098 11.392C18.5725 11.5787 18.5191 11.808 18.4498 12.08C18.4071 12.2453 18.3671 12.408 18.3298 12.568C18.2978 12.7227 18.2818 12.8453 18.2818 12.936C18.2818 13.0427 18.3058 13.1253 18.3538 13.184C18.4018 13.2427 18.4845 13.272 18.6018 13.272C18.7298 13.272 18.8178 13.256 18.8658 13.224C18.8338 13.496 18.7351 13.7013 18.5698 13.84C18.4098 13.9787 18.2151 14.048 17.9858 14.048Z" fill="#0E0E0E"/>
</svg>