<svg width="24" height="24" viewBox="0 0 24 24" fill="none" xmlns="http://www.w3.org/2000/svg">
<path d="M20.9903 23.9984H3.00118C2.60419 24.0116 2.20879 23.9422 1.83999 23.7947C1.4712 23.6471 1.13702 23.4247 0.8586 23.1414C0.577459 22.865 0.356271 22.5336 0.208822 22.1679C0.0613724 21.8022 -0.00917768 21.4101 0.00156898 21.016V3.00118C-0.0115605 2.60419 0.0578283 2.20879 0.205347 1.83999C0.352866 1.4712 0.575306 1.13702 0.8586 0.8586C1.13702 0.575306 1.4712 0.352866 1.83999 0.205347C2.20879 0.0578283 2.60419 -0.0115605 3.00118 0.00156898H20.9988C21.3958 -0.0115605 21.7912 0.0578283 22.16 0.205347C22.5288 0.352866 22.863 0.575306 23.1414 0.8586C23.4247 1.13702 23.6471 1.4712 23.7947 1.83999C23.9422 2.20879 24.0116 2.60419 23.9984 3.00118V20.9988C23.9939 21.7945 23.6753 22.5561 23.1118 23.1179C22.5484 23.6797 21.7859 23.9962 20.9903 23.9984ZM18.7448 18.0849C18.9205 18.082 19.091 18.0252 19.2333 17.9221C19.4116 17.837 19.5624 17.7034 19.6685 17.5367C19.7746 17.3701 19.8317 17.1769 19.8333 16.9793V6.79782C19.8398 6.6378 19.798 6.47951 19.7133 6.3436C19.6239 6.16047 19.4868 6.00487 19.3163 5.89324C19.1459 5.78161 18.9484 5.71809 18.7448 5.70939H5.08376C4.99258 5.71767 4.90456 5.74701 4.82665 5.7951C4.61937 5.86426 4.43795 5.99467 4.30636 6.16911C4.17476 6.34355 4.09918 6.55381 4.08961 6.77211V16.9793C4.09092 17.1474 4.14158 17.3113 4.2353 17.4507C4.32089 17.6349 4.45595 17.7918 4.62543 17.9037C4.79491 18.0157 4.99215 18.0784 5.19518 18.0849H18.7448ZM17.5793 15.8052H6.35217V9.42891L12 13.894L17.5793 9.42891V15.8052ZM12 10.9801C9.52318 9.0261 8.25478 8.01481 8.19478 7.96338H15.7709L12 10.9801Z" fill="white"/>
</svg>
