<svg width="24" height="24" viewBox="0 0 24 24" fill="none" xmlns="http://www.w3.org/2000/svg">
<path fill-rule="evenodd" clip-rule="evenodd" d="M4.73239 0H19.2676C21.8812 0 24 2.11877 24 4.73239V19.2676C24 21.8812 21.8812 24 19.2676 24H4.73239C2.11877 24 0 21.8812 0 19.2676V4.73239C0 2.11877 2.11877 0 4.73239 0ZM16.7306 4.26456C18.1269 5.07946 19.2324 6.18498 20.0473 7.58136C20.8618 8.97769 21.2695 10.5024 21.2699 12.1554C21.2699 14.1413 20.6903 15.9271 19.5315 17.5132C18.3726 19.0995 16.8754 20.1971 15.0398 20.8062C14.8261 20.8459 14.67 20.818 14.5711 20.7233C14.4721 20.6284 14.4226 20.5096 14.4226 20.3674V17.8637C14.4226 17.0964 14.217 16.5346 13.8057 16.1788C14.2566 16.1313 14.662 16.0599 15.022 15.9649C15.3819 15.8699 15.7539 15.7156 16.1376 15.502C16.5212 15.2885 16.8417 15.0255 17.099 14.7129C17.356 14.4002 17.5656 13.9852 17.7277 13.4668C17.8896 12.9486 17.9709 12.3534 17.9709 11.681C17.9709 10.7238 17.6583 9.90885 17.0333 9.23635C17.3262 8.51654 17.2945 7.70966 16.9386 6.81567C16.717 6.74439 16.3963 6.78794 15.977 6.94609C15.558 7.10433 15.1939 7.2784 14.8855 7.46834L14.4346 7.75302C13.6986 7.5474 12.9391 7.44457 12.1559 7.44457C11.3728 7.44457 10.6134 7.5474 9.87747 7.75302C9.75086 7.66615 9.58282 7.55904 9.37309 7.43264C9.16336 7.3062 8.83318 7.15371 8.38221 6.97569C7.93132 6.79775 7.59108 6.74426 7.36165 6.81554C7.01351 7.7095 6.98587 8.51642 7.27865 9.23622C6.65365 9.90872 6.34109 10.7235 6.34109 11.6809C6.34109 12.3533 6.42218 12.9466 6.58432 13.4609C6.74638 13.975 6.95412 14.3905 7.20724 14.7069C7.46032 15.0232 7.77874 15.2884 8.16259 15.5019C8.54622 15.7157 8.91809 15.8699 9.27795 15.9649C9.63802 16.0598 10.0434 16.1312 10.4943 16.1785C10.1779 16.4633 9.98408 16.8707 9.91288 17.4009C9.74667 17.48 9.56865 17.5395 9.37891 17.579C9.18896 17.6184 8.96352 17.6382 8.7025 17.6382C8.44148 17.6382 8.18233 17.5533 7.9253 17.3831C7.66806 17.213 7.44873 16.9658 7.26668 16.6414C7.11634 16.3883 6.92452 16.1827 6.69118 16.0245C6.45772 15.8662 6.262 15.7714 6.10376 15.7397L5.86652 15.7043C5.7003 15.7043 5.58575 15.7216 5.52237 15.7573C5.45898 15.793 5.43928 15.8385 5.46306 15.894C5.48679 15.9494 5.52233 16.0048 5.56979 16.0601C5.6173 16.1155 5.66867 16.1631 5.72403 16.2027L5.80712 16.2621C5.98115 16.3412 6.15318 16.4914 6.3233 16.713C6.49342 16.9344 6.61795 17.1363 6.69704 17.3181L6.81571 17.5912C6.91858 17.8916 7.09261 18.135 7.33775 18.3209C7.58302 18.5068 7.84799 18.6255 8.13287 18.6767C8.41762 18.7283 8.69265 18.756 8.95758 18.7597C9.22263 18.7636 9.44217 18.7501 9.6162 18.7182L9.88915 18.671C9.88915 18.9713 9.89106 19.3234 9.89513 19.7269C9.89908 20.1305 9.90112 20.344 9.90112 20.3677C9.90112 20.51 9.84974 20.6287 9.74687 20.7236C9.64404 20.8183 9.48589 20.8462 9.27226 20.8066C7.43692 20.1974 5.93971 19.0998 4.78074 17.5136C3.62165 15.9275 3.04225 14.1417 3.04225 12.1557C3.04225 10.5025 3.4497 8.97769 4.26456 7.58136C5.07955 6.18498 6.18498 5.07942 7.58136 4.26456C8.97753 3.44974 10.5025 3.04225 12.156 3.04225C13.8097 3.04225 15.3342 3.44962 16.7306 4.26456Z" fill="white"/>
</svg>
