<svg width="32" height="32" viewBox="0 0 32 32" fill="none" xmlns="http://www.w3.org/2000/svg">
<g filter="url(#filter0_b_117_2)">
<rect width="32" height="32" rx="16" fill="#DAC5A7" fill-opacity="0.05"/>
<g clip-path="url(#clip0_117_2)">
<path d="M20.922 11.5V18.813C20.922 18.9249 20.8775 19.0323 20.7984 19.1114C20.7193 19.1905 20.6119 19.235 20.5 19.235C20.3881 19.235 20.2807 19.1905 20.2016 19.1114C20.1225 19.0323 20.078 18.9249 20.078 18.813V12.52L11.795 20.795C11.7153 20.8654 11.6117 20.9027 11.5054 20.8994C11.3991 20.8961 11.298 20.8524 11.2228 20.7772C11.1476 20.702 11.1039 20.6009 11.1006 20.4946C11.0973 20.3883 11.1346 20.2847 11.205 20.205L19.48 11.922H13.187C13.0751 11.922 12.9677 11.8775 12.8886 11.7984C12.8095 11.7193 12.765 11.6119 12.765 11.5C12.765 11.3881 12.8095 11.2807 12.8886 11.2016C12.9677 11.1225 13.0751 11.078 13.187 11.078H20.5C20.5554 11.078 20.6103 11.0889 20.6615 11.1101C20.7127 11.1313 20.7592 11.1624 20.7984 11.2016C20.8376 11.2408 20.8687 11.2873 20.8899 11.3385C20.9111 11.3897 20.922 11.4446 20.922 11.5Z" fill="#DAC5A7"/>
</g>
<rect x="0.5" y="0.5" width="31" height="31" rx="15.5" stroke="#DAC5A7" stroke-opacity="0.15"/>
</g>
<defs>
<filter id="filter0_b_117_2" x="-15" y="-15" width="62" height="62" filterUnits="userSpaceOnUse" color-interpolation-filters="sRGB">
<feFlood flood-opacity="0" result="BackgroundImageFix"/>
<feGaussianBlur in="BackgroundImageFix" stdDeviation="7.5"/>
<feComposite in2="SourceAlpha" operator="in" result="effect1_backgroundBlur_117_2"/>
<feBlend mode="normal" in="SourceGraphic" in2="effect1_backgroundBlur_117_2" result="shape"/>
</filter>
<clipPath id="clip0_117_2">
<rect width="18" height="18" fill="white" transform="translate(7 7)"/>
</clipPath>
</defs>
</svg>
