<svg width="24" height="26" viewBox="0 0 24 26" fill="none" xmlns="http://www.w3.org/2000/svg">
<g clip-path="url(#clip0_27_314)">
<path fill-rule="evenodd" clip-rule="evenodd" d="M1.68366 1C0.70435 1 -0.0900879 1.77025 -0.0900879 2.71919V23.2814C-0.0900879 24.2304 0.704443 25 1.68366 25H22.1362C23.1159 25 23.9099 24.2303 23.9099 23.2811V2.71919C23.9099 1.77025 23.1159 1 22.1362 1H1.68366ZM7.2933 10.2799V21.0848H3.70192V10.2799H7.2933ZM7.53002 6.93838C7.53002 7.97526 6.75048 8.80494 5.49836 8.80494L5.49808 8.80485H5.47483C4.26948 8.80485 3.49023 7.97516 3.49023 6.93829C3.49023 5.87788 4.29302 5.07135 5.52217 5.07135C6.75048 5.07135 7.50658 5.87788 7.53002 6.93838ZM12.8723 21.0848H9.28117L9.28108 21.0852C9.28108 21.0852 9.32823 11.2939 9.28136 10.2803H12.8725V11.8097C13.3499 11.0736 14.2043 10.0266 16.1093 10.0266C18.472 10.0266 20.2435 11.5709 20.2435 14.8896V21.0848H16.6525V15.3051C16.6525 13.8524 16.1325 12.8617 14.8333 12.8617C13.841 12.8617 13.2501 13.5299 12.9906 14.1753C12.8957 14.4057 12.8723 14.729 12.8723 15.0515V21.0848Z" fill="white"/>
</g>
<defs>
<clipPath id="clip0_27_314">
<rect width="24" height="24.0964" fill="white" transform="translate(0 0.951782)"/>
</clipPath>
</defs>
</svg>
