<svg width="224" height="57" viewBox="0 0 224 57" fill="none" xmlns="http://www.w3.org/2000/svg">
<mask id="mask0_92_45" style="mask-type:luminance" maskUnits="userSpaceOnUse" x="63" y="15" width="150" height="28">
<path d="M213 15H63V42.3279H213V15Z" fill="white"/>
</mask>
<g mask="url(#mask0_92_45)">
<path d="M63.4194 36.2551V32.7328H66.2129V18.5223H63.4194V15H74.3506C75.6462 15 76.7696 15.2227 77.721 15.668C78.6927 16.0931 79.4417 16.7105 79.968 17.5202C80.5145 18.3097 80.7878 19.2611 80.7878 20.3745V20.6781C80.7878 21.6498 80.6056 22.4494 80.2413 23.0769C79.8769 23.6842 79.4417 24.1599 78.9356 24.504C78.4498 24.8279 77.9842 25.0607 77.5388 25.2024V25.749C77.9842 25.8704 78.47 26.1032 78.9963 26.4474C79.5227 26.7712 79.968 27.247 80.3323 27.8745C80.717 28.502 80.9093 29.3218 80.9093 30.334V30.6377C80.9093 31.8117 80.636 32.8239 80.0894 33.6741C79.5429 34.5041 78.7838 35.1417 77.8121 35.587C76.8607 36.0324 75.7473 36.2551 74.472 36.2551H63.4194ZM70.221 32.6113H73.9862C74.8567 32.6113 75.5551 32.3988 76.0813 31.9737C76.6279 31.5486 76.9012 30.9413 76.9012 30.1518V29.8482C76.9012 29.0587 76.638 28.4514 76.1117 28.0263C75.5854 27.6012 74.8769 27.3887 73.9862 27.3887H70.221V32.6113ZM70.221 23.7449H73.9255C74.7554 23.7449 75.4336 23.5324 75.9599 23.1073C76.5064 22.6822 76.7797 22.0951 76.7797 21.3462V21.0425C76.7797 20.2733 76.5166 19.6862 75.9902 19.2814C75.464 18.8563 74.7757 18.6437 73.9255 18.6437H70.221V23.7449ZM90.0509 36.498C88.8768 36.498 87.8444 36.2348 86.9537 35.7085C86.0832 35.1619 85.4051 34.413 84.9193 33.4615C84.4335 32.5101 84.1905 31.417 84.1905 30.1822V21.1943H88.0165V29.8785C88.0165 31.0122 88.2898 31.8624 88.8363 32.4292C89.4031 32.9959 90.2027 33.2794 91.2351 33.2794C92.4092 33.2794 93.3201 32.8948 93.9679 32.1255C94.6156 31.336 94.9396 30.2429 94.9396 28.8462V21.1943H98.7655V36.2551H95.0003V34.2814H94.4537C94.2108 34.7874 93.7553 35.2834 93.0873 35.7692C92.4193 36.2551 91.4071 36.498 90.0509 36.498ZM102.294 28.7854V28.2996C102.294 26.7206 102.608 25.3745 103.235 24.2611C103.863 23.1275 104.693 22.2672 105.725 21.6802C106.778 21.0729 107.922 20.7692 109.156 20.7692C110.533 20.7692 111.575 21.0121 112.284 21.498C112.993 21.9838 113.509 22.4899 113.833 23.0162H114.379V21.1943H118.144V38.9271C118.144 39.9595 117.841 40.7794 117.233 41.3866C116.626 42.0142 115.816 42.3279 114.804 42.3279H63.4194V38.9879H113.468C114.035 38.9879 114.318 38.6842 114.318 38.0769V34.1599H113.772C113.569 34.4838 113.286 34.8178 112.922 35.1619C112.557 35.4858 112.071 35.7591 111.464 35.9818C110.857 36.2045 110.088 36.3158 109.156 36.3158C107.922 36.3158 106.778 36.0223 105.725 35.4352C104.693 34.8279 103.863 33.9676 103.235 32.8543C102.608 31.7206 102.294 30.3644 102.294 28.7854ZM110.25 32.9757C111.424 32.9757 112.405 32.6012 113.195 31.8522C113.984 31.1033 114.379 30.0506 114.379 28.6943V28.3907C114.379 27.0142 113.984 25.9615 113.195 25.2328C112.426 24.4838 111.444 24.1093 110.25 24.1093C109.076 24.1093 108.094 24.4838 107.304 25.2328C106.515 25.9615 106.12 27.0142 106.12 28.3907V28.6943C106.12 30.0506 106.515 31.1033 107.304 31.8522C108.094 32.6012 109.076 32.9757 110.25 32.9757ZM129.248 36.6802C127.75 36.6802 126.424 36.3664 125.271 35.7389C124.137 35.0911 123.246 34.1903 122.599 33.0364C121.971 31.8624 121.657 30.4858 121.657 28.9069V28.5425C121.657 26.9636 121.971 25.5972 122.599 24.4433C123.226 23.2693 124.106 22.3684 125.24 21.7409C126.374 21.0931 127.689 20.7692 129.188 20.7692C130.665 20.7692 131.951 21.1032 133.044 21.7713C134.137 22.419 134.987 23.33 135.595 24.504C136.202 25.6579 136.505 27.0041 136.505 28.5425V29.8482H125.544C125.585 30.8806 125.969 31.7206 126.698 32.3684C127.427 33.0162 128.317 33.3401 129.37 33.3401C130.443 33.3401 131.232 33.1073 131.738 32.6417C132.244 32.1761 132.629 31.6599 132.892 31.0931L136.02 32.7328C135.736 33.2591 135.321 33.8361 134.775 34.4636C134.248 35.0709 133.54 35.5972 132.649 36.0425C131.758 36.4676 130.625 36.6802 129.248 36.6802ZM125.574 26.9939H132.619C132.538 26.1235 132.183 25.4251 131.556 24.8988C130.949 24.3725 130.149 24.1093 129.157 24.1093C128.125 24.1093 127.305 24.3725 126.698 24.8988C126.09 25.4251 125.716 26.1235 125.574 26.9939ZM139.911 36.2551V15H143.736V36.2551H139.911ZM155.143 36.6802C153.644 36.6802 152.298 36.3765 151.104 35.7692C149.91 35.1619 148.968 34.2814 148.28 33.1275C147.591 31.9737 147.248 30.5871 147.248 28.9676V28.4818C147.248 26.8623 147.591 25.4757 148.28 24.3219C148.968 23.168 149.91 22.2875 151.104 21.6802C152.298 21.0729 153.644 20.7692 155.143 20.7692C156.64 20.7692 157.986 21.0729 159.181 21.6802C160.375 22.2875 161.316 23.168 162.005 24.3219C162.693 25.4757 163.037 26.8623 163.037 28.4818V28.9676C163.037 30.5871 162.693 31.9737 162.005 33.1275C161.316 34.2814 160.375 35.1619 159.181 35.7692C157.986 36.3765 156.64 36.6802 155.143 36.6802ZM155.143 33.2794C156.316 33.2794 157.288 32.9048 158.057 32.1559C158.826 31.3866 159.211 30.2935 159.211 28.8765V28.5729C159.211 27.1559 158.826 26.0729 158.057 25.3239C157.308 24.5546 156.336 24.17 155.143 24.17C153.968 24.17 152.996 24.5546 152.228 25.3239C151.458 26.0729 151.074 27.1559 151.074 28.5729V28.8765C151.074 30.2935 151.458 31.3866 152.228 32.1559C152.996 32.9048 153.968 33.2794 155.143 33.2794ZM166.569 42.3279V21.1943H170.334V23.0162H170.88C171.225 22.4291 171.761 21.9129 172.49 21.4676C173.218 21.002 174.261 20.7692 175.617 20.7692C176.832 20.7692 177.955 21.0729 178.988 21.6802C180.02 22.2672 180.85 23.1377 181.478 24.2915C182.105 25.4453 182.419 26.8421 182.419 28.4818V28.9676C182.419 30.6073 182.105 32.0041 181.478 33.1579C180.85 34.3117 180.02 35.1923 178.988 35.7996C177.955 36.3867 176.832 36.6802 175.617 36.6802C174.706 36.6802 173.937 36.5689 173.31 36.3462C172.702 36.1437 172.206 35.8805 171.822 35.5567C171.457 35.2125 171.164 34.8684 170.941 34.5243H170.395V42.3279H166.569ZM174.463 33.3401C175.658 33.3401 176.639 32.9656 177.409 32.2166C178.198 31.4474 178.593 30.334 178.593 28.8765V28.5729C178.593 27.1154 178.198 26.0121 177.409 25.2632C176.619 24.4939 175.637 24.1093 174.463 24.1093C173.289 24.1093 172.307 24.4939 171.518 25.2632C170.729 26.0121 170.334 27.1154 170.334 28.5729V28.8765C170.334 30.334 170.729 31.4474 171.518 32.2166C172.307 32.9656 173.289 33.3401 174.463 33.3401ZM192.794 36.6802C191.296 36.6802 189.97 36.3664 188.817 35.7389C187.683 35.0911 186.792 34.1903 186.145 33.0364C185.517 31.8624 185.203 30.4858 185.203 28.9069V28.5425C185.203 26.9636 185.517 25.5972 186.145 24.4433C186.772 23.2693 187.652 22.3684 188.786 21.7409C189.919 21.0931 191.235 20.7692 192.734 20.7692C194.211 20.7692 195.497 21.1032 196.59 21.7713C197.683 22.419 198.533 23.33 199.14 24.504C199.748 25.6579 200.051 27.0041 200.051 28.5425V29.8482H189.09C189.13 30.8806 189.515 31.7206 190.244 32.3684C190.972 33.0162 191.863 33.3401 192.916 33.3401C193.988 33.3401 194.778 33.1073 195.284 32.6417C195.79 32.1761 196.174 31.6599 196.438 31.0931L199.566 32.7328C199.282 33.2591 198.867 33.8361 198.321 34.4636C197.794 35.0709 197.085 35.5972 196.195 36.0425C195.304 36.4676 194.17 36.6802 192.794 36.6802ZM189.12 26.9939H196.165C196.083 26.1235 195.729 25.4251 195.102 24.8988C194.495 24.3725 193.695 24.1093 192.703 24.1093C191.671 24.1093 190.851 24.3725 190.244 24.8988C189.636 25.4251 189.262 26.1235 189.12 26.9939ZM203.456 36.2551V21.1943H207.222V22.8947H207.768C207.991 22.2875 208.355 21.8421 208.861 21.5587C209.388 21.2753 209.995 21.1336 210.683 21.1336H212.505V24.5344H210.622C209.651 24.5344 208.851 24.7976 208.224 25.3239C207.596 25.8299 207.282 26.6194 207.282 27.6923V36.2551H203.456Z" fill="white"/>
<path d="M205.713 38.6842H187.494C186.488 38.6842 185.672 39.4999 185.672 40.5061C185.672 41.5123 186.488 42.3279 187.494 42.3279H205.713C206.719 42.3279 207.534 41.5123 207.534 40.5061C207.534 39.4999 206.719 38.6842 205.713 38.6842Z" fill="white"/>
</g>
<g clip-path="url(#clip0_92_45)">
<mask id="mask1_92_45" style="mask-type:luminance" maskUnits="userSpaceOnUse" x="5" y="4" width="50" height="50">
<path d="M55 4H5V54H55V4Z" fill="white"/>
</mask>
<g mask="url(#mask1_92_45)">
<path d="M45 5.66663H15C10.3976 5.66663 6.66666 9.39758 6.66666 14V44C6.66666 48.6023 10.3976 52.3333 15 52.3333H45C49.6024 52.3333 53.3333 48.6023 53.3333 44V14C53.3333 9.39758 49.6024 5.66663 45 5.66663Z" fill="#001547" stroke="#FFE70B" stroke-width="4"/>
<path d="M41.6667 20.6666H33.3333C32.4129 20.6666 31.6667 21.4129 31.6667 22.3333C31.6667 23.2537 32.4129 24 33.3333 24H41.6667C42.5871 24 43.3333 23.2537 43.3333 22.3333C43.3333 21.4129 42.5871 20.6666 41.6667 20.6666Z" fill="#25A6E9"/>
<path d="M23.3333 20.6666H18.3333C17.4128 20.6666 16.6667 21.4129 16.6667 22.3333C16.6667 23.2537 17.4128 24 18.3333 24H23.3333C24.2538 24 25 23.2537 25 22.3333C25 21.4129 24.2538 20.6666 23.3333 20.6666Z" fill="#25A6E9"/>
<path d="M21.4826 27.3333H18.2704C17.3847 27.3333 16.6667 28.0513 16.6667 28.937C16.6667 29.8228 17.3847 30.5408 18.2704 30.5408H21.4826C22.3683 30.5408 23.0864 29.8228 23.0864 28.937C23.0864 28.0513 22.3683 27.3333 21.4826 27.3333Z" fill="#FFE70B"/>
<path d="M33.3333 27.3333H26.6667C25.7461 27.3333 25 28.0795 25 28.9999C25 29.9204 25.7461 30.6666 26.6667 30.6666H33.3333C34.2538 30.6666 35 29.9204 35 28.9999C35 28.0795 34.2538 27.3333 33.3333 27.3333Z" fill="#FFE70B"/>
<path d="M23.1617 34.4781H18.2704C17.3847 34.4781 16.6667 35.1962 16.6667 36.0819C16.6667 36.9677 17.3847 37.6858 18.2704 37.6858H23.1617C24.0474 37.6858 24.7654 36.9677 24.7654 36.0819C24.7654 35.1962 24.0474 34.4781 23.1617 34.4781Z" fill="#FFE70B"/>
<path d="M41.6667 34H33.3333C32.4129 34 31.6667 34.7462 31.6667 35.6667C31.6667 36.5871 32.4129 37.3333 33.3333 37.3333H41.6667C42.5871 37.3333 43.3333 36.5871 43.3333 35.6667C43.3333 34.7462 42.5871 34 41.6667 34Z" fill="#8AEFB5"/>
<path d="M35 40.6666H28.3333C27.4129 40.6666 26.6667 41.4129 26.6667 42.3333C26.6667 43.2537 27.4129 44 28.3333 44H35C35.9205 44 36.6667 43.2537 36.6667 42.3333C36.6667 41.4129 35.9205 40.6666 35 40.6666Z" fill="#8964E8"/>
<path d="M35 14H28.3333C27.4129 14 26.6667 14.7462 26.6667 15.6667C26.6667 16.5871 27.4129 17.3333 28.3333 17.3333H35C35.9205 17.3333 36.6667 16.5871 36.6667 15.6667C36.6667 14.7462 35.9205 14 35 14Z" fill="#8964E8"/>
<path d="M21.6667 40.6666H18.3333C17.4128 40.6666 16.6667 41.4129 16.6667 42.3333C16.6667 43.2537 17.4128 44 18.3333 44H21.6667C22.5871 44 23.3333 43.2537 23.3333 42.3333C23.3333 41.4129 22.5871 40.6666 21.6667 40.6666Z" fill="#8964E8"/>
<path d="M21.6667 14H18.3333C17.4128 14 16.6667 14.7462 16.6667 15.6667C16.6667 16.5871 17.4128 17.3333 18.3333 17.3333H21.6667C22.5871 17.3333 23.3333 16.5871 23.3333 15.6667C23.3333 14.7462 22.5871 14 21.6667 14Z" fill="#8964E8"/>
</g>
</g>
<defs>
<clipPath id="clip0_92_45">
<rect width="50" height="50" fill="white" transform="translate(5 4)"/>
</clipPath>
</defs>
</svg>
