<svg width="105" height="25" viewBox="0 0 105 25" fill="none" xmlns="http://www.w3.org/2000/svg">
<path d="M20.672 6.184V13.264C20.672 15.136 20.184 16.592 19.208 17.632C18.232 18.656 16.832 19.168 15.008 19.168C13.04 19.168 11.624 18.504 10.76 17.176C10.312 17.848 9.736 18.352 9.032 18.688C8.344 19.008 7.504 19.168 6.512 19.168C4.688 19.168 3.288 18.656 2.312 17.632C1.352 16.592 0.872 15.136 0.872 13.264V6.184H3.872V13C3.872 14.216 4.08 15.112 4.496 15.688C4.928 16.264 5.608 16.552 6.536 16.552C7.464 16.552 8.152 16.264 8.6 15.688C9.048 15.096 9.272 14.2 9.272 13V6.184H12.272V13C12.272 14.2 12.496 15.096 12.944 15.688C13.392 16.264 14.08 16.552 15.008 16.552C15.936 16.552 16.608 16.264 17.024 15.688C17.456 15.112 17.672 14.216 17.672 13V6.184H20.672ZM24.7392 6.184H27.7393V19H24.7392V6.184ZM26.2513 4.072C25.7072 4.072 25.2512 3.904 24.8832 3.568C24.5152 3.216 24.3312 2.784 24.3312 2.272C24.3312 1.76 24.5152 1.336 24.8832 0.999999C25.2512 0.647999 25.7072 0.472 26.2513 0.472C26.7952 0.472 27.2512 0.639999 27.6192 0.975999C27.9872 1.296 28.1712 1.704 28.1712 2.2C28.1712 2.728 27.9872 3.176 27.6192 3.544C27.2672 3.896 26.8112 4.072 26.2513 4.072ZM36.1407 19.168C34.8127 19.168 33.7727 18.808 33.0207 18.088C32.2847 17.352 31.9167 16.32 31.9167 14.992V1.192H34.9167V14.776C34.9167 16.056 35.5167 16.696 36.7167 16.696C37.1167 16.696 37.4767 16.616 37.7968 16.456L37.9407 18.856C37.3807 19.064 36.7807 19.168 36.1407 19.168ZM44.4433 19.168C43.1153 19.168 42.0753 18.808 41.3233 18.088C40.5873 17.352 40.2193 16.32 40.2193 14.992V1.192H43.2193V14.776C43.2193 16.056 43.8193 16.696 45.0193 16.696C45.4193 16.696 45.7793 16.616 46.0993 16.456L46.2433 18.856C45.6833 19.064 45.0833 19.168 44.4433 19.168Z" fill="#DAC5A7"/>
<path d="M51.0897 25C50.0497 25 49.2177 24.744 48.5937 24.232C47.9697 23.72 47.6577 23.024 47.6577 22.144C47.6577 21.68 47.7297 21.144 47.8737 20.536C48.0177 19.928 48.2337 19.152 48.5217 18.208C48.8097 17.232 49.0257 16.456 49.1697 15.88C49.3137 15.304 49.3857 14.792 49.3857 14.344C49.3857 14.024 49.3137 13.8 49.1697 13.672C49.0257 13.544 48.7697 13.48 48.4017 13.48H47.6337L47.8977 12.256H48.6417C49.2017 12.256 49.6097 12.04 49.8657 11.608C50.1217 11.16 50.2657 10.408 50.2977 9.352C50.3937 7.16 50.5937 5.472 50.8977 4.288C51.2177 3.088 51.7057 2.232 52.3617 1.72C53.0177 1.208 53.9377 0.951999 55.1217 0.951999H56.1537L55.9617 2.152C55.1457 2.152 54.5537 2.32 54.1857 2.656C53.8337 2.976 53.5617 3.64 53.3697 4.648C53.1937 5.656 53.0017 7.392 52.7937 9.856C52.7297 10.672 52.5297 11.288 52.1937 11.704C51.8577 12.104 51.2657 12.488 50.4177 12.856C50.9137 13.08 51.2577 13.336 51.4497 13.624C51.6417 13.896 51.7377 14.264 51.7377 14.728C51.7377 15.08 51.6897 15.48 51.5937 15.928C51.5137 16.376 51.3697 17 51.1617 17.8C50.9377 18.632 50.7697 19.344 50.6577 19.936C50.5457 20.528 50.4897 21.072 50.4897 21.568C50.4897 22.256 50.6177 22.8 50.8737 23.2C51.1457 23.616 51.5297 23.856 52.0257 23.92L51.7857 25H51.0897ZM95.8113 23.8C96.6113 23.8 97.1873 23.632 97.5393 23.296C97.9073 22.976 98.1873 22.304 98.3793 21.28C98.5713 20.272 98.7633 18.544 98.9553 16.096C99.0193 15.28 99.2193 14.672 99.5553 14.272C99.8913 13.856 100.491 13.464 101.355 13.096C100.859 12.872 100.507 12.624 100.299 12.352C100.107 12.064 100.011 11.688 100.011 11.224C100.011 10.856 100.051 10.456 100.131 10.024C100.227 9.576 100.379 8.952 100.587 8.152C100.827 7.24 101.003 6.512 101.115 5.968C101.227 5.408 101.283 4.88 101.283 4.384C101.283 3.696 101.147 3.152 100.875 2.752C100.603 2.336 100.219 2.096 99.7233 2.032L99.9633 0.951999H100.659C101.715 0.951999 102.547 1.208 103.155 1.72C103.779 2.232 104.091 2.928 104.091 3.808C104.091 4.272 104.019 4.808 103.875 5.416C103.731 6.024 103.515 6.8 103.227 7.744C102.923 8.816 102.707 9.616 102.579 10.144C102.451 10.672 102.387 11.16 102.387 11.608C102.387 11.928 102.459 12.152 102.603 12.28C102.747 12.408 103.003 12.472 103.371 12.472H104.115L103.875 13.696H103.107C102.547 13.696 102.139 13.92 101.883 14.368C101.627 14.8 101.483 15.544 101.451 16.6C101.355 18.808 101.147 20.504 100.827 21.688C100.523 22.872 100.043 23.72 99.3873 24.232C98.7313 24.744 97.8113 25 96.6273 25H95.5953L95.8113 23.8Z" fill="#FFA23E"/>
<path d="M57.6312 19.096C57.1032 19.096 56.6552 18.912 56.2872 18.544C55.9192 18.176 55.7352 17.728 55.7352 17.2C55.7352 16.672 55.9192 16.224 56.2872 15.856C56.6552 15.472 57.1032 15.28 57.6312 15.28C58.1592 15.28 58.6072 15.472 58.9752 15.856C59.3592 16.224 59.5512 16.672 59.5512 17.2C59.5512 17.728 59.3592 18.176 58.9752 18.544C58.6072 18.912 58.1592 19.096 57.6312 19.096ZM65.3039 5.704C64.7759 5.704 64.3279 5.52 63.9599 5.152C63.5919 4.784 63.4079 4.336 63.4079 3.808C63.4079 3.28 63.5919 2.832 63.9599 2.464C64.3279 2.08 64.7759 1.888 65.3039 1.888C65.8319 1.888 66.2799 2.08 66.6479 2.464C67.0319 2.832 67.2239 3.28 67.2239 3.808C67.2239 4.336 67.0319 4.784 66.6479 5.152C66.2799 5.52 65.8319 5.704 65.3039 5.704ZM63.6719 19.144C62.9039 19.144 62.2799 18.904 61.7999 18.424C61.3359 17.944 61.1039 17.224 61.1039 16.264C61.1039 15.864 61.1679 15.344 61.2959 14.704L62.9279 7H66.3839L64.6559 15.16C64.5919 15.4 64.5599 15.656 64.5599 15.928C64.5599 16.248 64.6319 16.48 64.7759 16.624C64.9359 16.752 65.1919 16.816 65.5439 16.816C66.0079 16.816 66.4399 16.624 66.8399 16.24C67.2399 15.84 67.5279 15.328 67.7039 14.704H68.7119C68.1199 16.432 67.3599 17.608 66.4319 18.232C65.5039 18.84 64.5839 19.144 63.6719 19.144ZM70.5744 19.144C69.6624 19.144 68.9024 18.832 68.2944 18.208C67.6864 17.584 67.3824 16.608 67.3824 15.28C67.3824 14.096 67.6144 12.856 68.0784 11.56C68.5584 10.248 69.2624 9.144 70.1904 8.248C71.1344 7.336 72.2544 6.88 73.5504 6.88C74.2064 6.88 74.6944 6.992 75.0144 7.216C75.3344 7.44 75.4944 7.736 75.4944 8.104V8.272L75.7584 7H79.2144L77.4864 15.16C77.4224 15.4 77.3904 15.656 77.3904 15.928C77.3904 16.616 77.7184 16.96 78.3744 16.96C78.8224 16.96 79.2064 16.752 79.5264 16.336C79.8624 15.92 80.1264 15.376 80.3184 14.704H81.3264C80.7344 16.432 79.9984 17.608 79.1184 18.232C78.2544 18.84 77.3824 19.144 76.5024 19.144C75.8304 19.144 75.2864 18.96 74.8704 18.592C74.4704 18.208 74.2304 17.656 74.1504 16.936C73.6864 17.592 73.1664 18.128 72.5904 18.544C72.0304 18.944 71.3584 19.144 70.5744 19.144ZM72.1344 16.816C72.5344 16.816 72.9264 16.632 73.3104 16.264C73.7104 15.88 73.9824 15.36 74.1264 14.704L75.2784 9.28C75.2784 9.072 75.1984 8.872 75.0384 8.68C74.8784 8.472 74.6304 8.368 74.2944 8.368C73.6544 8.368 73.0784 8.744 72.5664 9.496C72.0544 10.232 71.6544 11.128 71.3664 12.184C71.0784 13.224 70.9344 14.144 70.9344 14.944C70.9344 15.744 71.0464 16.256 71.2704 16.48C71.5104 16.704 71.7984 16.816 72.1344 16.816ZM94.5112 19.144C93.6632 19.144 93.0472 18.888 92.6632 18.376C92.2792 17.864 92.0872 17.216 92.0872 16.432C92.0872 16.096 92.1272 15.72 92.2072 15.304C92.2872 14.872 92.3672 14.456 92.4472 14.056C92.5432 13.656 92.6072 13.4 92.6392 13.288C92.7672 12.728 92.8872 12.176 92.9992 11.632C93.1112 11.088 93.1672 10.648 93.1672 10.312C93.1672 9.496 92.8792 9.088 92.3032 9.088C91.8872 9.088 91.5192 9.296 91.1992 9.712C90.8792 10.112 90.6232 10.64 90.4312 11.296L88.7992 19H85.3432L87.0952 10.72C87.1432 10.528 87.1672 10.328 87.1672 10.12C87.1672 9.416 86.9272 9.064 86.4472 9.064C85.9992 9.064 85.6072 9.272 85.2712 9.688C84.9512 10.088 84.6952 10.624 84.5032 11.296L82.8712 19H79.4152L81.9592 7H85.4152L85.1512 8.248C85.9672 7.336 86.9432 6.88 88.0792 6.88C89.4872 6.88 90.3112 7.568 90.5512 8.944C91.4312 7.584 92.5432 6.904 93.8872 6.904C94.7032 6.904 95.3512 7.128 95.8312 7.576C96.3112 8.024 96.5512 8.704 96.5512 9.616C96.5512 10.08 96.4952 10.6 96.3832 11.176C96.2712 11.736 96.1112 12.424 95.9032 13.24C95.7752 13.736 95.6552 14.224 95.5432 14.704C95.4472 15.168 95.3992 15.536 95.3992 15.808C95.3992 16.128 95.4712 16.376 95.6152 16.552C95.7592 16.728 96.0072 16.816 96.3592 16.816C96.7432 16.816 97.0072 16.768 97.1512 16.672C97.0552 17.488 96.7592 18.104 96.2632 18.52C95.7832 18.936 95.1992 19.144 94.5112 19.144Z" fill="#FFE70B"/>
</svg>
